<svg version="1" xmlns="http://www.w3.org/2000/svg" width="666.667" height="666.667" viewBox="0 0 500.000000 500.000000"><path d="M0 250v250h500V0H0v250zM271.6 31.7c-.3 1.6-.9 19.6-1.3 40l-.6 37.3h6.5c22.9 0 62.7 6.1 61.5 9.4-.2.6-2.4 12.3-4.7 26.1-2.4 13.7-4.4 25.1-4.4 25.2-.1.1-4.4-1.1-9.6-2.8-34.5-11.1-75.1-11.7-88.6-1.4-7.1 5.4-9.5 16.6-5.3 25.3 4 8.1 14.3 14.4 41.4 25.2 35.8 14.2 56.3 26.9 67.6 41.9 10.7 14.1 14.3 25.5 14.2 45.1-.1 19.7-4 32.7-13.8 45.8-10.8 14.3-32.8 26-57.4 30.3l-7.4 1.3.7 37c.3 20.4.9 38.3 1.2 39.8l.6 2.8h-38.9l.5-38.3.5-38.4-15.5-.6c-22.9-1-63.5-6.3-66.1-8.7-.9-.8 7-49.9 8.2-51.2.4-.4 4.7.6 9.7 2.2 33.6 10.8 82.7 12 101.6 2.4 12.9-6.5 14.4-22.7 3.1-33.9-8.1-8.2-14.7-11.9-44.2-25.2-38.6-17.3-57-31.2-66-49.5-6.1-12.5-7.4-18.9-6.8-33.8.7-17.6 4.3-27.8 14.7-42.2 10.9-15 32.3-26.9 55.4-30.9l6.9-1.2-.6-34.1c-.4-18.7-1-37.1-1.3-40.9l-.7-6.7h39.5l-.6 2.7z"/></svg>